<svg width="43" height="49" viewBox="0 0 43 49" fill="none" xmlns="http://www.w3.org/2000/svg">
<path d="M25.7161 8.87302L31.6651 10.4518C31.8196 10.4834 31.9463 10.6102 31.9821 10.7662L33.5503 16.7149C33.5925 16.8897 33.7453 17.0123 33.924 17.0123C34.1044 17.0123 34.2572 16.8896 34.2978 16.7149L35.8677 10.7662C35.9017 10.6102 36.0285 10.4834 36.1829 10.4518L42.1324 8.87302C42.3063 8.84048 42.4298 8.68535 42.4298 8.50657C42.4298 8.32617 42.3064 8.17429 42.1324 8.13926L36.1829 6.56141C36.0285 6.5281 35.9017 6.40302 35.8677 6.24702L34.2978 0.298211C34.2572 0.12518 34.1044 0 33.924 0C33.7453 0 33.5925 0.12518 33.5503 0.298211L31.9821 6.24693C31.9463 6.40292 31.8196 6.52801 31.6651 6.56131L25.7161 8.13926C25.5405 8.1742 25.4187 8.32617 25.4187 8.50657C25.4186 8.68535 25.5405 8.84048 25.7161 8.87302Z" fill="#FF7A00"/>
<path d="M4.81004 16.7799L5.92976 21.0304C5.96067 21.1563 6.07025 21.2433 6.19783 21.2433C6.32626 21.2433 6.43517 21.1564 6.46522 21.0304L7.58571 16.7799C7.60926 16.6678 7.70113 16.5777 7.81243 16.554L12.0636 15.4279C12.1879 15.402 12.2765 15.2898 12.2765 15.163C12.2765 15.0362 12.1879 14.9274 12.0636 14.9013L7.81243 13.7736C7.70104 13.7492 7.60926 13.6614 7.58571 13.5493L6.46522 9.2964C6.43517 9.17294 6.32626 9.08508 6.19783 9.08508C6.07025 9.08508 5.96067 9.17284 5.92976 9.2964L4.81004 13.5493C4.78314 13.6614 4.69462 13.7492 4.58245 13.7736L0.331991 14.9013C0.20528 14.9274 0.118286 15.0362 0.118286 15.163C0.118286 15.2897 0.205185 15.4019 0.331991 15.4279L4.58245 16.554C4.69471 16.5777 4.78314 16.6678 4.81004 16.7799Z" fill="#FF7A00"/>
<path d="M0.647339 35.1769V39.0056C0.647339 39.637 0.774145 40.2522 1.0269 40.8632C1.27955 41.4727 1.65825 42.0779 2.1628 42.6695C2.37574 42.9173 2.61461 43.1627 2.87052 43.4041V37.2766C2.70314 37.1515 2.54063 37.0255 2.38224 36.898C1.72314 36.36 1.14059 35.7855 0.647339 35.1769Z" fill="#FF7A00"/>
<path d="M4.64832 44.8008C5.24148 45.19 5.8916 45.5629 6.5976 45.9123C6.90069 46.0635 7.2167 46.2064 7.53778 46.3462V39.8311C6.50017 39.4118 5.53319 38.9463 4.64832 38.4384V44.8008Z" fill="#FF7A00"/>
<path d="M9.3172 40.4804V47.0093H9.2124C10.4791 47.4619 11.8531 47.8495 13.3174 48.1591V41.5255C12.3682 41.3346 11.4485 41.1151 10.5677 40.8648C10.1421 40.7428 9.72432 40.6153 9.3172 40.4804Z" fill="#FF7A00"/>
<path d="M15.0961 48.48C16.9259 48.7757 18.8614 48.9593 20.8749 49V42.3266C18.8719 42.2875 16.9365 42.121 15.0961 41.8365V48.48Z" fill="#FF7A00"/>
<path d="M22.6544 48.9951C24.7509 48.9546 26.761 48.7563 28.6555 48.4401V41.8066C26.7505 42.1088 24.7379 42.2901 22.6544 42.3307V48.9951Z" fill="#FF7A00"/>
<path d="M30.4333 48.107C31.1338 47.9542 31.8179 47.7876 32.4744 47.6007C33.1554 47.4074 33.8086 47.1961 34.4359 46.9686V40.4048C33.1814 40.8282 31.8423 41.1905 30.4333 41.4814V48.107Z" fill="#FF7A00"/>
<path d="M36.2137 39.7385V46.2504C37.2928 45.7628 38.2614 45.2265 39.1032 44.6495V38.3085C38.6628 38.5686 38.2013 38.8196 37.7203 39.0592C37.2376 39.2973 36.7338 39.5232 36.2137 39.7385Z" fill="#FF7A00"/>
<path d="M40.7755 37.1839H40.8811V43.1919C41.632 42.4387 42.1762 41.6529 42.5013 40.8632C42.7548 40.2521 42.8816 39.6371 42.8816 39.0056V35.1785C42.828 35.2451 42.7743 35.3118 42.7173 35.3776C42.1682 36.0203 41.5132 36.6208 40.7755 37.1839Z" fill="#FF7A00"/>
<path d="M42.5014 31.2515C42.7549 30.6404 42.8816 30.0262 42.8816 29.3956C42.8816 28.7651 42.7549 28.1508 42.5014 27.5398C42.2494 26.9296 41.8709 26.3242 41.3654 25.7335C40.3578 24.5513 38.8432 23.4348 36.9305 22.4906C33.1082 20.5958 27.7214 19.39 21.7646 19.3933C17.8555 19.3933 14.1916 19.9084 11.0544 20.8014C7.91635 21.6927 5.30643 22.9677 3.50587 24.4376C2.3025 25.4151 1.4672 26.4729 1.02678 27.5399C0.774119 28.1509 0.647217 28.7652 0.647217 29.3957C0.647217 30.0263 0.774023 30.6405 1.02678 31.2516C1.27943 31.861 1.65813 32.4663 2.16268 33.057C3.17187 34.241 4.68646 35.3557 6.59756 36.3008C10.4198 38.1965 15.8077 39.4015 21.7646 39.3991C25.6745 39.3991 29.338 38.8831 32.4743 37.9894C35.6124 37.098 38.2239 35.8239 40.023 34.3547C41.2256 33.3754 42.0626 32.3176 42.5014 31.2515ZM28.8976 31.579C28.6206 32.0794 28.1793 32.506 27.5788 32.8595C26.9654 33.2203 26.1975 33.4917 25.276 33.6721C24.8702 33.7517 24.442 33.8053 24.0068 33.8492L24.184 36.005H20.7405L20.7168 33.8915C19.7812 33.8338 18.8902 33.7242 18.0582 33.5535C16.8 33.2951 15.2513 32.2843 15.2513 32.2843C15.1185 32.225 15.038 32.1218 15.0327 32.0081C15.0271 31.8944 15.0928 31.7806 15.2164 31.7009L16.8687 30.6105C17.0414 30.4968 17.297 30.4764 17.4887 30.5593C17.4887 30.5593 18.6088 31.2588 19.4876 31.4295C20.3733 31.5985 21.2585 31.6846 22.1381 31.6846C23.2498 31.6831 24.1586 31.5433 24.8553 31.267C25.5459 30.9907 25.8478 30.573 25.7739 30.014C25.7223 29.6216 25.5139 29.3186 25.1462 29.0983C24.785 28.8797 24.2016 28.7457 23.3983 28.6871L20.775 28.5425C19.2311 28.4434 18.0586 28.163 17.264 27.712C16.4835 27.2675 16.148 26.6143 16.2365 25.7708C16.2836 25.319 16.4717 24.9258 16.7967 24.5862C17.1149 24.254 17.5296 23.9768 18.037 23.7542C18.5413 23.5348 19.1157 23.3691 19.7654 23.2602C20.0335 23.2146 20.3155 23.1854 20.6023 23.157L20.5914 22.1429L23.0444 22.1364L23.1264 23.1317C23.7192 23.1627 24.2864 23.2163 24.8202 23.2992C25.7339 23.4365 26.7504 23.8647 26.7504 23.8647C26.8764 23.9021 26.9706 23.9679 27.0055 24.046C27.0404 24.1264 27.012 24.2044 26.9271 24.2612L25.8135 25.0153C25.6924 25.0965 25.4894 25.1193 25.3122 25.0665C25.3122 25.0665 24.5334 24.7504 23.8874 24.6528C23.2459 24.5554 22.5795 24.5082 21.882 24.5099C20.9731 24.5115 20.2992 24.6163 19.8616 24.8267C19.4172 25.0412 19.1888 25.3208 19.1796 25.6726C19.1702 25.9952 19.3233 26.2454 19.6475 26.4226C19.9725 26.6014 20.5238 26.7184 21.3076 26.7655L23.5068 26.8824C25.1461 26.9719 26.4262 27.2481 27.3554 27.7195C28.3093 28.2013 28.8927 28.9261 29.1024 29.9198C29.234 30.5389 29.1657 31.093 28.8976 31.579ZM39.5875 30.14L37.0134 30.8225C36.945 30.8356 36.8898 30.8916 36.8753 30.9606L36.1959 33.534C36.1781 33.6095 36.113 33.6631 36.0351 33.6631C35.957 33.6631 35.8905 33.6095 35.8726 33.534L35.1933 30.9606C35.177 30.8915 35.1234 30.8355 35.0552 30.8225L32.4809 30.14C32.4046 30.1245 32.351 30.0571 32.351 29.9807C32.351 29.9026 32.4046 29.836 32.4809 29.8206L35.0552 29.1388C35.1234 29.1218 35.177 29.0706 35.1933 29.0024L35.8726 26.4266C35.8905 26.3502 35.957 26.2974 36.0351 26.2974C36.113 26.2974 36.1781 26.3502 36.1959 26.4266L36.8753 29.0024C36.8898 29.0706 36.9451 29.1218 37.0134 29.1388L39.5875 29.8206C39.6623 29.836 39.7175 29.9026 39.7175 29.9807C39.7175 30.0571 39.6623 30.1245 39.5875 30.14Z" fill="#FF7A00"/>
</svg>
