<svg width="49" height="49" viewBox="0 0 49 49" fill="none" xmlns="http://www.w3.org/2000/svg">
<path d="M36.75 23.9692C36.6735 23.6921 36.5394 23.4343 36.3565 23.2127C36.1735 22.991 35.9459 22.8105 35.6883 22.6829L28.7671 19.2529L30.625 6.41084C30.6861 5.96577 30.5987 5.51298 30.3763 5.12264C30.1539 4.73229 29.809 4.42618 29.395 4.25175C28.9811 4.07731 28.5211 4.04429 28.0864 4.1578C27.6518 4.27131 27.2667 4.52501 26.9908 4.87959L12.6992 23.2546C12.5087 23.5041 12.3782 23.7941 12.318 24.1022C12.2579 24.4102 12.2695 24.728 12.3521 25.0308C12.4332 25.3366 12.5842 25.6193 12.7932 25.8567C13.0023 26.0941 13.2636 26.2796 13.5567 26.3988L22.2746 29.89L20.4167 42.5892C20.3535 43.045 20.4462 43.5088 20.6796 43.9053C20.9131 44.3018 21.2737 44.6078 21.7029 44.7738C21.9422 44.873 22.1994 44.9216 22.4583 44.9167C22.7946 44.9149 23.1252 44.8302 23.4209 44.6699C23.7165 44.5096 23.968 44.2788 24.1529 43.9979L36.4029 25.6229C36.5755 25.388 36.6957 25.1189 36.7556 24.8336C36.8154 24.5484 36.8135 24.2536 36.75 23.9692Z" fill="#FF7A00"/>
</svg>
