<svg width="54" height="54" viewBox="0 0 54 54" fill="none" xmlns="http://www.w3.org/2000/svg">
<path d="M38.8125 1.6875C36.1272 1.6875 33.5518 2.75424 31.653 4.65304C29.7542 6.55185 28.6875 9.12718 28.6875 11.8125C28.6849 13.6454 29.187 15.4436 30.1388 17.01L27 21.9375L32.2734 19.5412C33.5173 20.594 34.997 21.3309 36.5866 21.6894C38.1763 22.0479 39.829 22.0175 41.4043 21.6006C42.9797 21.1837 44.4311 20.3928 45.6354 19.295C46.8397 18.1971 47.7612 16.8248 48.3216 15.2946C48.8821 13.7645 49.0649 12.1216 48.8545 10.5057C48.6442 8.88974 48.047 7.34843 47.1135 6.0127C46.1801 4.67696 44.938 3.58627 43.4928 2.83327C42.0476 2.08027 40.4421 1.68722 38.8125 1.6875Z" fill="#FF7A00"/>
<path d="M25.3125 22.7812H20.25V26.1562H25.3125V22.7812Z" fill="#E5600B"/>
<path d="M19.4062 39.6562H5.0625V51.4688H19.4062V39.6562Z" fill="#E5600B"/>
<path d="M26.1562 37.9688V38.8125L25.3125 26.1562H20.25L18.5625 51.4688H26.1562H27H49.7812V37.9688H26.1562Z" fill="#FF7A00"/>
<path d="M35.4375 34.5938L36.2812 26.1562H39.6562L40.5 34.5938" fill="#E5600B"/>
<path d="M43.0312 34.5938L43.875 26.1562H47.25L48.0938 34.5938" fill="#E5600B"/>
<path d="M27.8438 34.5938L28.6875 26.1562H32.0625L32.9062 34.5938" fill="#E5600B"/>
<path d="M48.0938 34.5938H27.8438C26.4458 34.5938 25.3125 35.727 25.3125 37.125C25.3125 38.523 26.4458 39.6562 27.8438 39.6562H48.0938C49.4917 39.6562 50.625 38.523 50.625 37.125C50.625 35.727 49.4917 34.5938 48.0938 34.5938Z" fill="#E5600B"/>
<path d="M52.3125 50.625H1.6875V52.3125H52.3125V50.625Z" fill="#E5600B"/>
<path d="M6.75 39.6562L7.59375 31.2188H10.9688L11.8125 39.6562" fill="#E5600B"/>
<path d="M32.9062 43.0312H29.5312V48.0938H32.9062V43.0312Z" fill="#1E1E1E"/>
<path d="M46.4062 43.0312H43.0312V48.0938H46.4062V43.0312Z" fill="#1E1E1E"/>
<path d="M39.6562 43.0312H36.2812V48.0938H39.6562V43.0312Z" fill="#1E1E1E"/>
<path d="M9.28125 42.1875H7.59375V43.875H9.28125V42.1875Z" fill="#1E1E1E"/>
<path d="M12.6562 42.1875H10.9688V43.875H12.6562V42.1875Z" fill="#1E1E1E"/>
<path d="M16.0312 42.1875H14.3438V43.875H16.0312V42.1875Z" fill="#1F1F1F"/>
<path d="M9.28125 45.5625H7.59375V47.25H9.28125V45.5625Z" fill="#1F1F1F"/>
<path d="M12.6562 45.5625H10.9688V47.25H12.6562V45.5625Z" fill="#1E1E1E"/>
<path d="M16.0312 45.5625H14.3438V47.25H16.0312V45.5625Z" fill="#1F1F1F"/>
<path d="M34.5938 11.8125L37.125 12.6562L36.2812 17.7188L41.3438 11.8125L38.8125 10.9688L43.0312 5.90625H37.9688L34.5938 11.8125Z" fill="#1F1F1F"/>
</svg>
