<svg width="102" height="102" viewBox="0 0 102 102" fill="none" xmlns="http://www.w3.org/2000/svg">
<path d="M31.6316 8.53008C37.7268 5.74492 44.2434 4.3334 51 4.3334C54.3768 4.3334 57.7334 4.69336 60.9982 5.40664C60.85 8.21172 62.0316 10.0867 62.8566 11.3949C63.0883 11.7633 63.4049 12.2666 63.4383 12.4049C63.4383 19.2898 62.0449 20.7383 61.7717 20.7383C58.7717 20.7383 53.6533 23.535 51.7949 27.0066C50.6566 29.1301 50.7482 31.3766 52.0516 33.3299C52.9916 34.7398 53.7965 36.3016 54.5766 37.81C56.1816 40.9184 57.9615 44.3684 60.6982 44.3684C61.2615 44.3684 61.8648 44.2217 62.5166 43.8967C64.6916 42.8084 66.2865 39.6449 67.8299 36.5867C68.5648 35.1301 69.6533 32.9717 70.2682 32.4217C72.4564 32.6383 73.4631 34.4834 74.8299 37.4434C75.7648 39.4684 76.7316 41.5633 78.5883 42.4918C81.8066 44.0969 92.425 42.3867 98.3115 39.8867C98.3814 39.8566 98.4281 39.8 98.4916 39.7635C98.5883 39.7051 98.6816 39.6502 98.7648 39.5768C98.8449 39.5035 98.9082 39.4217 98.9715 39.3352C99.0348 39.2518 99.0947 39.1686 99.1414 39.0734C99.1896 38.9768 99.2164 38.8785 99.2447 38.7734C99.2715 38.6717 99.2965 38.5734 99.3047 38.465C99.3113 38.3533 99.298 38.2467 99.283 38.1334C99.273 38.0602 99.2881 37.99 99.268 37.9168C95.233 22.9951 84.2697 10.5818 69.9396 4.71348C69.0881 4.36523 68.1146 4.77187 67.7664 5.62344C67.4182 6.4752 67.8248 7.44844 68.6764 7.79687C81.5896 13.0869 91.5564 24.0752 95.6197 37.3602C89.4098 39.6152 81.5248 40.2334 80.0781 39.5084C79.2682 39.1033 78.5498 37.55 77.8564 36.0467C76.5365 33.1883 74.7297 29.275 70.1781 29.0734C67.9281 28.9934 66.6432 31.5367 64.8531 35.0852C63.7398 37.2951 62.2131 40.3219 61.0264 40.9152C60.1631 41.3502 58.7646 38.6586 57.5381 36.2818C56.7547 34.7652 55.8682 33.0451 54.8248 31.4818C54.2016 30.5484 54.1732 29.6252 54.7332 28.5785C56.1266 25.9752 60.1883 24.0719 61.7715 24.0719C65.0898 24.0719 66.7715 20.1469 66.7715 12.4053C66.7715 11.357 66.2398 10.5137 65.6766 9.61855C64.8283 8.27519 63.9533 6.88516 64.4783 4.48691C64.6717 3.60684 64.1299 2.73516 63.2584 2.51367C59.2768 1.50996 55.1518 1 51 1C43.7617 1 36.7801 2.51328 30.2467 5.49668C29.41 5.88008 29.0416 6.86836 29.4234 7.70508C29.8066 8.54336 30.7949 8.91328 31.6316 8.53008Z" fill="white" stroke="white" stroke-width="1.5625"/>
<path d="M74.265 52.2617C73.6533 52.4367 72.8918 52.6551 72.6668 52.6668C70.1219 52.6668 68.54 54.5969 67.2719 56.1484C66.6902 56.8601 65.8086 57.9352 65.3736 57.9352C65.3019 57.9352 65.1986 57.9035 65.0787 57.8436C64.242 57.4236 63.3654 57.2135 62.4703 57.2135C60.3137 57.2135 58.4486 58.4834 58.0353 60.2352C57.7486 61.4518 58.1803 63.1201 60.2553 64.1584C63.4137 65.7367 66.6803 67.3701 68.1553 68.8451C69.0986 69.7885 70.7486 70.3301 72.6836 70.3301C75.6402 70.3301 79.5685 68.8967 80.9152 64.8602C81.4836 63.1551 82.8818 61.8168 84.1152 60.6369C85.5469 59.2652 86.9002 57.9703 86.9203 56.1703C86.932 55.1152 86.4586 54.1004 85.5119 53.1553C84.2053 51.8486 82.417 51.1853 80.1986 51.1853C78.035 51.185 75.8566 51.8066 74.265 52.2617ZM83.5867 56.1334C83.5834 56.5316 82.5168 57.5533 81.81 58.2283C80.3717 59.6051 78.5816 61.3166 77.7516 63.8066C76.9682 66.1584 74.6199 66.9967 72.6832 66.9967C71.4266 66.9967 70.6781 66.6551 70.5115 66.4883C68.6531 64.6299 65.2982 62.9516 61.7449 61.1766C61.55 61.0783 61.4232 60.9865 61.3482 60.9215C61.6166 60.6615 62.6566 60.3582 63.5883 60.8248C64.1766 61.1182 64.7783 61.2682 65.3732 61.2682C67.3883 61.2666 68.6965 59.6699 69.8516 58.2598C70.9682 56.8947 71.7666 55.9998 72.6666 55.9998C73.3166 55.9998 74.0982 55.7766 75.1816 55.4664C76.5834 55.0664 78.5016 54.5182 80.1982 54.5182C81.5182 54.5182 82.4865 54.8432 83.1549 55.5115C83.5117 55.8684 83.5883 56.0816 83.5867 56.1334Z" fill="white" stroke="white" stroke-width="1.5625"/>
<path d="M43.1551 72.1783C43.4801 72.5033 43.9068 72.6666 44.3334 72.6666C44.7602 72.6666 45.1867 72.5033 45.5117 72.1783C47.3635 70.3266 48.1934 68.1367 47.8484 66.0117C47.5668 64.2816 46.4801 62.71 45.0785 62.0084C44.4785 61.7102 43.6918 61.4801 42.7803 61.215C41.1336 60.735 38.6453 60.01 38.0285 58.8334C37.9018 58.59 37.7652 58.175 38.0352 57.3602C38.5268 55.8867 38.9734 55.0484 39.3652 54.3084C40.4402 52.29 41.0002 50.9684 41.0002 45.1668C41.0002 42.115 39.5352 39.7502 36.8719 38.5102C36.0402 38.1252 35.0484 38.4834 34.6586 39.3186C34.2703 40.1535 34.6318 41.1436 35.4652 41.5336C36.927 42.2137 37.667 43.4354 37.667 45.167C37.667 50.407 37.1986 51.2854 36.4236 52.742C35.992 53.5553 35.452 54.567 34.8736 56.307C34.3754 57.802 34.4436 59.1721 35.077 60.3803C36.352 62.8152 39.5287 63.7402 41.8486 64.4152C42.542 64.617 43.257 64.8252 43.5887 64.992C43.902 65.1486 44.4188 65.6904 44.5586 66.5453C44.7285 67.6004 44.2436 68.7336 43.1553 69.8221C42.5033 70.4732 42.5033 71.5268 43.1551 72.1783Z" fill="white" stroke="white" stroke-width="1.5625"/>
<path d="M19.3334 89.3334C19.3334 90.2533 20.0801 91 21 91C26.515 91 31 86.515 31 81C31 80.0801 30.2533 79.3334 29.3334 79.3334C28.4135 79.3334 27.6668 80.0801 27.6668 81C27.6668 84.6768 24.6768 87.6666 21.0002 87.6666C20.0801 87.6666 19.3334 88.4133 19.3334 89.3334Z" fill="#FF7A00" stroke="#FF7A00" stroke-width="1.5625"/>
<path d="M100.525 44.0801C100.4 43.1684 99.5482 42.5301 98.6449 42.6584C97.7332 42.7834 97.0967 43.625 97.2232 44.5385C97.5182 46.6617 97.6666 48.8369 97.6666 51.0002C97.6666 76.7318 76.7316 97.6668 51 97.6668C43.7684 97.6668 40.0533 96.1602 39.9834 96.1318C39.1418 95.7752 38.1617 96.1652 37.8018 97.0102C37.4385 97.8568 37.8318 98.8369 38.6768 99.1984C38.8482 99.2717 42.9734 101 51 101C78.5699 101 101 78.5699 101 51C101 48.6834 100.84 46.3551 100.525 44.0801Z" fill="white" stroke="white" stroke-width="1.5625"/>
<path d="M31 63.6949V17.6666C31 12.1516 26.515 7.6666 21 7.6666C15.485 7.6666 11 12.1516 11 17.6666V19.3332C11 20.2531 11.7467 20.9998 12.6666 20.9998C13.5865 20.9998 14.3332 20.2531 14.3332 19.3332V17.6666C14.3332 13.9898 17.3232 11 20.9998 11C24.6766 11 27.6664 13.99 27.6664 17.6666V64.6832C27.6664 65.31 28.0164 65.8832 28.573 66.1682C34.183 69.0381 37.6664 74.7215 37.6664 80.9998C37.6664 90.1898 30.1896 97.6664 20.9998 97.6664C11.81 97.6664 4.3334 90.19 4.3334 81C4.3334 74.7217 7.8168 69.0383 13.4268 66.1684C13.9834 65.8834 14.3334 65.31 14.3334 64.6834V57.6668H16C16.9199 57.6668 17.6666 56.9201 17.6666 56.0002C17.6666 55.0803 16.9199 54.3336 16 54.3336H14.3334V47.667H16C16.9199 47.667 17.6666 46.9203 17.6666 46.0004C17.6666 45.0805 16.9199 44.3338 16 44.3338H14.3334V37.6672H16C16.9199 37.6672 17.6666 36.9205 17.6666 36.0006C17.6666 35.0807 16.9199 34.334 16 34.334H14.3334V27.6674H22.6668C23.5867 27.6674 24.3334 26.9207 24.3334 26.0008C24.3334 25.0809 23.5867 24.3342 22.6668 24.3342H12.6668C11.7469 24.3342 11.0002 25.0809 11.0002 26.0008V63.6957C4.80664 67.2699 1 73.81 1 81C1 92.0283 9.97168 101 21 101C32.0283 101 41 92.0283 41 81C41 73.81 37.1934 67.2699 31 63.6949Z" fill="#FF7A00" stroke="#FF7A00" stroke-width="1.5625"/>
<path d="M51.5633 90.8717C53.325 90.8717 54.9699 90.2383 56.075 89.1334C58.6117 86.5967 56.6268 82.3301 54.4084 80.1102C53.9 79.6018 53.2334 79.3334 52.4801 79.3334C50.1734 79.3334 47.4518 82.0217 46.4518 84.4367C45.6885 86.2783 45.9084 87.99 47.0518 89.1334C48.1566 90.2383 49.8018 90.8717 51.5633 90.8717ZM49.475 85.8584C50.0018 84.4084 51.5551 83 52.2883 82.7168C53.5699 84.1418 54.3115 86.1834 53.7184 86.7768C52.7633 87.7318 50.3617 87.7301 49.4084 86.7768C49.2633 86.6316 49.3533 86.19 49.475 85.8584Z" fill="white" stroke="white" stroke-width="1.5625"/>
</svg>
