<svg width="41" height="39" viewBox="0 0 41 39" fill="none" xmlns="http://www.w3.org/2000/svg">
<path d="M4.5 27V17.9375L0.75 21.6875V16.6875L7.00003 10.125L13.2501 16.6875V21.6875L9.50005 17.9375L9.49997 27H4.5ZM22 38.25L19.675 38.1242L20.7501 22C19.9167 22.4166 18.25 25.7499 18.25 25.7499C18.25 25.7499 17.4167 26.9999 17.0001 31.9999L13.2501 30.7499L14.5 24.5C14.5 24.5 17.0001 15.75 21.9999 15.7501H31.9999C37 15.75 39.5001 24.5 39.5001 24.5L40.1328 28.0858C39.2293 29.5605 38.1508 30.9165 36.9264 32.1249C36.4928 27.6997 35.7501 25.7499 35.7501 25.7499C35.7501 25.7499 34.0834 22.4166 33.25 21.9999L33.9598 34.5674C30.5529 36.8913 26.4351 38.25 22 38.25ZM27 0.75C30.4518 0.75 33.25 3.54821 33.25 6.99995C33.25 10.4518 30.4518 13.25 27 13.25C23.5483 13.25 20.7501 10.4518 20.7501 6.99995C20.7501 3.54821 23.5483 0.75 27 0.75Z" fill="#FF7A00"/>
</svg>
